# xmcd
#
# Track frame offsets: 
#        150
#        14201
#        27515
#        43997
#        57303
#        71280
#        84585
#        103471
#        116219
#        130009
#        152113
#        168012
#        181275
#        194518
#
# Disc length: 2852 seconds
#
# Revision: 0
# Processed by: cddbd v1.5.2PL0 Copyright (c) Steve Scherf et al.
# Submitted via: ExactAudioCopy v0.99pb5
#
DISCID=ca0b220e
DTITLE=Lost Country - Turn Your Radio Around
DYEAR=2003
DGENRE=Alternative
TTITLE0=Turn Your Radio Around
TTITLE1=Cotillion
TTITLE2=When The Band Plays The Blues
TTITLE3=There Goes My Memory Again
TTITLE4=Tennessee Border
TTITLE5=Give It Up Buddy
TTITLE6=San Miguel De Allende
TTITLE7=Somebody's Back In Town
TTITLE8=I Got The Bug
TTITLE9=Henry, Was That You In The Mirror?
TTITLE10=Perfect
TTITLE11=Cruisin' Through Ohio
TTITLE12=My Man Called Me
TTITLE13=Pecos River Trail
EXTD=
EXTT0=
EXTT1=
EXTT2=
EXTT3=
EXTT4=
EXTT5=
EXTT6=
EXTT7=
EXTT8=
EXTT9=
EXTT10=
EXTT11=
EXTT12=
EXTT13=
PLAYORDER=
